<svg width="378" height="250" viewBox="0 0 378 250" fill="none" xmlns="http://www.w3.org/2000/svg">
<path opacity="0.42" d="M5.08301 156.841L378 156.841M5.08301 188.229L378 188.229M5.08301 125.453L378 125.453M5.083 94.6149L378 94.6149M5.083 63.2265L378 63.2265M5.083 32.3888L378 32.3888M5.083 1.00039L378 1.00038" stroke="url(#paint0_radial_1_329)" stroke-width="0.359629" stroke-dasharray="2.88 2.88"/>
<path d="M364.901 1C301.721 85.7539 140.304 151.246 2.77103 167.811" stroke="url(#paint1_linear_1_329)" stroke-width="0.77401"/>
<path d="M2.77103 167.811C140.304 151.246 301.721 85.7539 364.901 1V181.295H2.77103V167.811Z" fill="url(#paint2_linear_1_329)"/>
<path d="M3.13269 246.229V238.741H0.468687V237.853H6.80469V238.741H4.14069V246.229H3.13269ZM8.63187 246.229V240.037H9.59187V246.229H8.63187ZM9.11187 238.585C8.91187 238.585 8.76387 238.537 8.66787 238.441C8.57187 238.337 8.52387 238.205 8.52387 238.045V237.889C8.52387 237.729 8.57187 237.601 8.66787 237.505C8.76387 237.401 8.91187 237.349 9.11187 237.349C9.31987 237.349 9.46787 237.401 9.55587 237.505C9.65187 237.601 9.69987 237.729 9.69987 237.889V238.045C9.69987 238.205 9.65187 238.337 9.55587 238.441C9.46787 238.537 9.31987 238.585 9.11187 238.585ZM14.4999 246.373C13.9399 246.373 13.4519 246.241 13.0359 245.977C12.6199 245.705 12.2959 245.329 12.0639 244.849C11.8319 244.361 11.7159 243.789 11.7159 243.133C11.7159 242.477 11.8319 241.909 12.0639 241.429C12.2959 240.941 12.6199 240.565 13.0359 240.301C13.4519 240.029 13.9399 239.893 14.4999 239.893C15.0519 239.893 15.5279 240.025 15.9279 240.289C16.3279 240.545 16.6359 240.901 16.8519 241.357C17.0679 241.813 17.1759 242.333 17.1759 242.917V243.373H12.7239V243.661C12.7239 244.197 12.8839 244.645 13.2039 245.005C13.5319 245.357 13.9839 245.533 14.5599 245.533C14.9519 245.533 15.2919 245.441 15.5799 245.257C15.8759 245.073 16.1039 244.809 16.2639 244.465L16.9479 244.957C16.7479 245.373 16.4359 245.713 16.0119 245.977C15.5879 246.241 15.0839 246.373 14.4999 246.373ZM12.7239 242.653H16.1439V242.521C16.1439 242.153 16.0759 241.833 15.9399 241.561C15.8039 241.289 15.6119 241.077 15.3639 240.925C15.1159 240.773 14.8279 240.697 14.4999 240.697C14.1559 240.697 13.8479 240.777 13.5759 240.937C13.3119 241.097 13.1039 241.321 12.9519 241.609C12.7999 241.889 12.7239 242.209 12.7239 242.569V242.653ZM19.2978 246.229V240.037H20.2578V241.177H20.3178C20.3898 240.977 20.5018 240.793 20.6538 240.625C20.8058 240.449 21.0018 240.309 21.2418 240.205C21.4818 240.093 21.7698 240.037 22.1058 240.037H22.4778V240.997H21.9138C21.5698 240.997 21.2738 241.045 21.0258 241.141C20.7778 241.229 20.5858 241.349 20.4498 241.501C20.3218 241.653 20.2578 241.829 20.2578 242.029V246.229H19.2978ZM27.656 246.229V245.341H29.996V238.597H29.912L27.8 240.565L27.212 239.929L29.432 237.853H31.004V245.341H33.164V246.229H27.656Z" fill="#FCFCFD"/>
<path d="M61.1327 246.229V238.741H58.4687V237.853H64.8047V238.741H62.1407V246.229H61.1327ZM66.6319 246.229V240.037H67.5919V246.229H66.6319ZM67.1119 238.585C66.9119 238.585 66.7639 238.537 66.6679 238.441C66.5719 238.337 66.5239 238.205 66.5239 238.045V237.889C66.5239 237.729 66.5719 237.601 66.6679 237.505C66.7639 237.401 66.9119 237.349 67.1119 237.349C67.3199 237.349 67.4679 237.401 67.5559 237.505C67.6519 237.601 67.6999 237.729 67.6999 237.889V238.045C67.6999 238.205 67.6519 238.337 67.5559 238.441C67.4679 238.537 67.3199 238.585 67.1119 238.585ZM72.4999 246.373C71.9399 246.373 71.4519 246.241 71.0359 245.977C70.6199 245.705 70.2959 245.329 70.0639 244.849C69.8319 244.361 69.7159 243.789 69.7159 243.133C69.7159 242.477 69.8319 241.909 70.0639 241.429C70.2959 240.941 70.6199 240.565 71.0359 240.301C71.4519 240.029 71.9399 239.893 72.4999 239.893C73.0519 239.893 73.5279 240.025 73.9279 240.289C74.3279 240.545 74.6359 240.901 74.8519 241.357C75.0679 241.813 75.1759 242.333 75.1759 242.917V243.373H70.7239V243.661C70.7239 244.197 70.8839 244.645 71.2039 245.005C71.5319 245.357 71.9839 245.533 72.5599 245.533C72.9519 245.533 73.2919 245.441 73.5799 245.257C73.8759 245.073 74.1039 244.809 74.2639 244.465L74.9479 244.957C74.7479 245.373 74.4359 245.713 74.0119 245.977C73.5879 246.241 73.0839 246.373 72.4999 246.373ZM70.7239 242.653H74.1439V242.521C74.1439 242.153 74.0759 241.833 73.9399 241.561C73.8039 241.289 73.6119 241.077 73.3639 240.925C73.1159 240.773 72.8279 240.697 72.4999 240.697C72.1559 240.697 71.8479 240.777 71.5759 240.937C71.3119 241.097 71.1039 241.321 70.9519 241.609C70.7999 241.889 70.7239 242.209 70.7239 242.569V242.653ZM77.2978 246.229V240.037H78.2578V241.177H78.3178C78.3898 240.977 78.5018 240.793 78.6538 240.625C78.8058 240.449 79.0018 240.309 79.2418 240.205C79.4818 240.093 79.7698 240.037 80.1058 240.037H80.4778V240.997H79.9138C79.5698 240.997 79.2738 241.045 79.0258 241.141C78.7778 241.229 78.5858 241.349 78.4498 241.501C78.3218 241.653 78.2578 241.829 78.2578 242.029V246.229H77.2978ZM85.5 246.229V245.197L88.236 242.677C88.628 242.317 88.956 241.933 89.22 241.525C89.484 241.117 89.616 240.713 89.616 240.313V240.169C89.616 239.705 89.488 239.329 89.232 239.041C88.976 238.753 88.588 238.609 88.068 238.609C87.556 238.609 87.164 238.745 86.892 239.017C86.628 239.289 86.44 239.625 86.328 240.025L85.428 239.677C85.54 239.349 85.7 239.037 85.908 238.741C86.124 238.437 86.412 238.189 86.772 237.997C87.132 237.805 87.58 237.709 88.116 237.709C88.66 237.709 89.124 237.813 89.508 238.021C89.892 238.229 90.184 238.517 90.384 238.885C90.584 239.245 90.684 239.665 90.684 240.145C90.684 240.577 90.604 240.973 90.444 241.333C90.292 241.693 90.076 242.033 89.796 242.353C89.524 242.673 89.208 242.993 88.848 243.313L86.592 245.341H90.996V246.229H85.5Z" fill="#FCFCFD"/>
<path d="M120.133 246.229V238.741H117.469V237.853H123.805V238.741H121.141V246.229H120.133ZM125.632 246.229V240.037H126.592V246.229H125.632ZM126.112 238.585C125.912 238.585 125.764 238.537 125.668 238.441C125.572 238.337 125.524 238.205 125.524 238.045V237.889C125.524 237.729 125.572 237.601 125.668 237.505C125.764 237.401 125.912 237.349 126.112 237.349C126.32 237.349 126.468 237.401 126.556 237.505C126.652 237.601 126.7 237.729 126.7 237.889V238.045C126.7 238.205 126.652 238.337 126.556 238.441C126.468 238.537 126.32 238.585 126.112 238.585ZM131.5 246.373C130.94 246.373 130.452 246.241 130.036 245.977C129.62 245.705 129.296 245.329 129.064 244.849C128.832 244.361 128.716 243.789 128.716 243.133C128.716 242.477 128.832 241.909 129.064 241.429C129.296 240.941 129.62 240.565 130.036 240.301C130.452 240.029 130.94 239.893 131.5 239.893C132.052 239.893 132.528 240.025 132.928 240.289C133.328 240.545 133.636 240.901 133.852 241.357C134.068 241.813 134.176 242.333 134.176 242.917V243.373H129.724V243.661C129.724 244.197 129.884 244.645 130.204 245.005C130.532 245.357 130.984 245.533 131.56 245.533C131.952 245.533 132.292 245.441 132.58 245.257C132.876 245.073 133.104 244.809 133.264 244.465L133.948 244.957C133.748 245.373 133.436 245.713 133.012 245.977C132.588 246.241 132.084 246.373 131.5 246.373ZM129.724 242.653H133.144V242.521C133.144 242.153 133.076 241.833 132.94 241.561C132.804 241.289 132.612 241.077 132.364 240.925C132.116 240.773 131.828 240.697 131.5 240.697C131.156 240.697 130.848 240.777 130.576 240.937C130.312 241.097 130.104 241.321 129.952 241.609C129.8 241.889 129.724 242.209 129.724 242.569V242.653ZM136.298 246.229V240.037H137.258V241.177H137.318C137.39 240.977 137.502 240.793 137.654 240.625C137.806 240.449 138.002 240.309 138.242 240.205C138.482 240.093 138.77 240.037 139.106 240.037H139.478V240.997H138.914C138.57 240.997 138.274 241.045 138.026 241.141C137.778 241.229 137.586 241.349 137.45 241.501C137.322 241.653 137.258 241.829 137.258 242.029V246.229H136.298ZM146.816 246.373C146.336 246.373 145.924 246.305 145.58 246.169C145.244 246.025 144.956 245.845 144.716 245.629C144.484 245.413 144.28 245.185 144.104 244.945L144.86 244.369C145.076 244.697 145.324 244.965 145.604 245.173C145.892 245.373 146.292 245.473 146.804 245.473C147.396 245.473 147.844 245.337 148.148 245.065C148.452 244.793 148.604 244.413 148.604 243.925V243.829C148.604 243.333 148.452 242.953 148.148 242.689C147.844 242.417 147.396 242.281 146.804 242.281H145.82V241.405H146.732C147.3 241.405 147.724 241.273 148.004 241.009C148.292 240.745 148.436 240.413 148.436 240.013V239.929C148.436 239.489 148.296 239.161 148.016 238.945C147.744 238.721 147.384 238.609 146.936 238.609C146.504 238.609 146.152 238.705 145.88 238.897C145.608 239.081 145.384 239.333 145.208 239.653L144.464 239.077C144.608 238.853 144.788 238.637 145.004 238.429C145.22 238.221 145.488 238.049 145.808 237.913C146.128 237.777 146.512 237.709 146.96 237.709C147.432 237.709 147.86 237.793 148.244 237.961C148.628 238.121 148.932 238.357 149.156 238.669C149.388 238.981 149.504 239.365 149.504 239.821C149.504 240.357 149.348 240.789 149.036 241.117C148.724 241.445 148.344 241.665 147.896 241.777V241.825C148.2 241.881 148.484 241.997 148.748 242.173C149.02 242.341 149.24 242.573 149.408 242.869C149.576 243.157 149.66 243.513 149.66 243.937C149.66 244.417 149.54 244.841 149.3 245.209C149.068 245.569 148.736 245.853 148.304 246.061C147.88 246.269 147.384 246.373 146.816 246.373Z" fill="#FCFCFD"/>
<path d="M177.133 246.229V238.741H174.469V237.853H180.805V238.741H178.141V246.229H177.133ZM182.632 246.229V240.037H183.592V246.229H182.632ZM183.112 238.585C182.912 238.585 182.764 238.537 182.668 238.441C182.572 238.337 182.524 238.205 182.524 238.045V237.889C182.524 237.729 182.572 237.601 182.668 237.505C182.764 237.401 182.912 237.349 183.112 237.349C183.32 237.349 183.468 237.401 183.556 237.505C183.652 237.601 183.7 237.729 183.7 237.889V238.045C183.7 238.205 183.652 238.337 183.556 238.441C183.468 238.537 183.32 238.585 183.112 238.585ZM188.5 246.373C187.94 246.373 187.452 246.241 187.036 245.977C186.62 245.705 186.296 245.329 186.064 244.849C185.832 244.361 185.716 243.789 185.716 243.133C185.716 242.477 185.832 241.909 186.064 241.429C186.296 240.941 186.62 240.565 187.036 240.301C187.452 240.029 187.94 239.893 188.5 239.893C189.052 239.893 189.528 240.025 189.928 240.289C190.328 240.545 190.636 240.901 190.852 241.357C191.068 241.813 191.176 242.333 191.176 242.917V243.373H186.724V243.661C186.724 244.197 186.884 244.645 187.204 245.005C187.532 245.357 187.984 245.533 188.56 245.533C188.952 245.533 189.292 245.441 189.58 245.257C189.876 245.073 190.104 244.809 190.264 244.465L190.948 244.957C190.748 245.373 190.436 245.713 190.012 245.977C189.588 246.241 189.084 246.373 188.5 246.373ZM186.724 242.653H190.144V242.521C190.144 242.153 190.076 241.833 189.94 241.561C189.804 241.289 189.612 241.077 189.364 240.925C189.116 240.773 188.828 240.697 188.5 240.697C188.156 240.697 187.848 240.777 187.576 240.937C187.312 241.097 187.104 241.321 186.952 241.609C186.8 241.889 186.724 242.209 186.724 242.569V242.653ZM193.298 246.229V240.037H194.258V241.177H194.318C194.39 240.977 194.502 240.793 194.654 240.625C194.806 240.449 195.002 240.309 195.242 240.205C195.482 240.093 195.77 240.037 196.106 240.037H196.478V240.997H195.914C195.57 240.997 195.274 241.045 195.026 241.141C194.778 241.229 194.586 241.349 194.45 241.501C194.322 241.653 194.258 241.829 194.258 242.029V246.229H193.298ZM205.1 246.229V244.585H201.056V243.697L204.56 237.853H206.06V243.745H207.272V244.585H206.06V246.229H205.1ZM202.004 243.745H205.1V238.633H205.04L202.004 243.745Z" fill="#FCFCFD"/>
<path d="M240.133 246.229V238.741H237.469V237.853H243.805V238.741H241.141V246.229H240.133ZM245.632 246.229V240.037H246.592V246.229H245.632ZM246.112 238.585C245.912 238.585 245.764 238.537 245.668 238.441C245.572 238.337 245.524 238.205 245.524 238.045V237.889C245.524 237.729 245.572 237.601 245.668 237.505C245.764 237.401 245.912 237.349 246.112 237.349C246.32 237.349 246.468 237.401 246.556 237.505C246.652 237.601 246.7 237.729 246.7 237.889V238.045C246.7 238.205 246.652 238.337 246.556 238.441C246.468 238.537 246.32 238.585 246.112 238.585ZM251.5 246.373C250.94 246.373 250.452 246.241 250.036 245.977C249.62 245.705 249.296 245.329 249.064 244.849C248.832 244.361 248.716 243.789 248.716 243.133C248.716 242.477 248.832 241.909 249.064 241.429C249.296 240.941 249.62 240.565 250.036 240.301C250.452 240.029 250.94 239.893 251.5 239.893C252.052 239.893 252.528 240.025 252.928 240.289C253.328 240.545 253.636 240.901 253.852 241.357C254.068 241.813 254.176 242.333 254.176 242.917V243.373H249.724V243.661C249.724 244.197 249.884 244.645 250.204 245.005C250.532 245.357 250.984 245.533 251.56 245.533C251.952 245.533 252.292 245.441 252.58 245.257C252.876 245.073 253.104 244.809 253.264 244.465L253.948 244.957C253.748 245.373 253.436 245.713 253.012 245.977C252.588 246.241 252.084 246.373 251.5 246.373ZM249.724 242.653H253.144V242.521C253.144 242.153 253.076 241.833 252.94 241.561C252.804 241.289 252.612 241.077 252.364 240.925C252.116 240.773 251.828 240.697 251.5 240.697C251.156 240.697 250.848 240.777 250.576 240.937C250.312 241.097 250.104 241.321 249.952 241.609C249.8 241.889 249.724 242.209 249.724 242.569V242.653ZM256.298 246.229V240.037H257.258V241.177H257.318C257.39 240.977 257.502 240.793 257.654 240.625C257.806 240.449 258.002 240.309 258.242 240.205C258.482 240.093 258.77 240.037 259.106 240.037H259.478V240.997H258.914C258.57 240.997 258.274 241.045 258.026 241.141C257.778 241.229 257.586 241.349 257.45 241.501C257.322 241.653 257.258 241.829 257.258 242.029V246.229H256.298ZM267.14 246.373C266.676 246.373 266.28 246.305 265.952 246.169C265.624 246.025 265.344 245.845 265.112 245.629C264.888 245.413 264.692 245.185 264.524 244.945L265.28 244.369C265.496 244.697 265.732 244.965 265.988 245.173C266.252 245.373 266.636 245.473 267.14 245.473C267.708 245.473 268.14 245.321 268.436 245.017C268.74 244.713 268.892 244.285 268.892 243.733V243.613C268.892 243.061 268.74 242.633 268.436 242.329C268.14 242.025 267.708 241.873 267.14 241.873C266.756 241.873 266.452 241.945 266.228 242.089C266.012 242.225 265.816 242.389 265.64 242.581L264.788 242.461L265.088 237.853H269.576V238.741H265.904L265.664 241.933H265.748C265.884 241.741 266.028 241.577 266.18 241.441C266.332 241.305 266.512 241.201 266.72 241.129C266.928 241.049 267.176 241.009 267.464 241.009C267.944 241.009 268.372 241.113 268.748 241.321C269.124 241.529 269.42 241.825 269.636 242.209C269.852 242.593 269.96 243.057 269.96 243.601C269.96 244.145 269.848 244.625 269.624 245.041C269.4 245.457 269.076 245.785 268.652 246.025C268.236 246.257 267.732 246.373 267.14 246.373Z" fill="#FCFCFD"/>
<path d="M306.133 246.229V238.741H303.469V237.853H309.805V238.741H307.141V246.229H306.133ZM311.632 246.229V240.037H312.592V246.229H311.632ZM312.112 238.585C311.912 238.585 311.764 238.537 311.668 238.441C311.572 238.337 311.524 238.205 311.524 238.045V237.889C311.524 237.729 311.572 237.601 311.668 237.505C311.764 237.401 311.912 237.349 312.112 237.349C312.32 237.349 312.468 237.401 312.556 237.505C312.652 237.601 312.7 237.729 312.7 237.889V238.045C312.7 238.205 312.652 238.337 312.556 238.441C312.468 238.537 312.32 238.585 312.112 238.585ZM317.5 246.373C316.94 246.373 316.452 246.241 316.036 245.977C315.62 245.705 315.296 245.329 315.064 244.849C314.832 244.361 314.716 243.789 314.716 243.133C314.716 242.477 314.832 241.909 315.064 241.429C315.296 240.941 315.62 240.565 316.036 240.301C316.452 240.029 316.94 239.893 317.5 239.893C318.052 239.893 318.528 240.025 318.928 240.289C319.328 240.545 319.636 240.901 319.852 241.357C320.068 241.813 320.176 242.333 320.176 242.917V243.373H315.724V243.661C315.724 244.197 315.884 244.645 316.204 245.005C316.532 245.357 316.984 245.533 317.56 245.533C317.952 245.533 318.292 245.441 318.58 245.257C318.876 245.073 319.104 244.809 319.264 244.465L319.948 244.957C319.748 245.373 319.436 245.713 319.012 245.977C318.588 246.241 318.084 246.373 317.5 246.373ZM315.724 242.653H319.144V242.521C319.144 242.153 319.076 241.833 318.94 241.561C318.804 241.289 318.612 241.077 318.364 240.925C318.116 240.773 317.828 240.697 317.5 240.697C317.156 240.697 316.848 240.777 316.576 240.937C316.312 241.097 316.104 241.321 315.952 241.609C315.8 241.889 315.724 242.209 315.724 242.569V242.653ZM322.298 246.229V240.037H323.258V241.177H323.318C323.39 240.977 323.502 240.793 323.654 240.625C323.806 240.449 324.002 240.309 324.242 240.205C324.482 240.093 324.77 240.037 325.106 240.037H325.478V240.997H324.914C324.57 240.997 324.274 241.045 324.026 241.141C323.778 241.229 323.586 241.349 323.45 241.501C323.322 241.653 323.258 241.829 323.258 242.029V246.229H322.298ZM333.212 246.373C332.636 246.373 332.136 246.245 331.712 245.989C331.296 245.725 330.972 245.353 330.74 244.873C330.516 244.393 330.404 243.821 330.404 243.157C330.404 242.533 330.492 241.949 330.668 241.405C330.852 240.861 331.092 240.361 331.388 239.905C331.692 239.449 332.016 239.049 332.36 238.705C332.712 238.353 333.056 238.069 333.392 237.853H334.688C334.096 238.285 333.584 238.713 333.152 239.137C332.728 239.553 332.376 240.005 332.096 240.493C331.816 240.981 331.6 241.549 331.448 242.197L331.508 242.221C331.644 241.989 331.8 241.785 331.976 241.609C332.16 241.425 332.38 241.281 332.636 241.177C332.892 241.073 333.188 241.021 333.524 241.021C334.004 241.021 334.428 241.125 334.796 241.333C335.172 241.541 335.464 241.841 335.672 242.233C335.888 242.617 335.996 243.073 335.996 243.601C335.996 244.145 335.88 244.629 335.648 245.053C335.416 245.469 335.092 245.793 334.676 246.025C334.26 246.257 333.772 246.373 333.212 246.373ZM333.2 245.497C333.568 245.497 333.88 245.429 334.136 245.293C334.4 245.157 334.6 244.957 334.736 244.693C334.88 244.429 334.952 244.109 334.952 243.733V243.637C334.952 243.261 334.88 242.941 334.736 242.677C334.6 242.413 334.4 242.213 334.136 242.077C333.88 241.941 333.568 241.873 333.2 241.873C332.832 241.873 332.516 241.941 332.252 242.077C331.996 242.213 331.796 242.413 331.652 242.677C331.516 242.941 331.448 243.261 331.448 243.637V243.733C331.448 244.109 331.516 244.429 331.652 244.693C331.796 244.957 331.996 245.157 332.252 245.293C332.516 245.429 332.832 245.497 333.2 245.497Z" fill="#FCFCFD"/>
<defs>
<radialGradient id="paint0_radial_1_329" cx="0" cy="0" r="1" gradientUnits="userSpaceOnUse" gradientTransform="translate(191.542 92.8251) scale(186.459 123.076)">
<stop stop-color="#AAEDFF"/>
<stop offset="1" stop-color="#AAEDFF" stop-opacity="0"/>
</radialGradient>
<linearGradient id="paint1_linear_1_329" x1="-40.3764" y1="188.229" x2="389.172" y2="-15.1803" gradientUnits="userSpaceOnUse">
<stop stop-opacity="0"/>
<stop offset="0.305208" stop-color="#4EAEFD"/>
<stop offset="0.785308" stop-color="#4EAEFD"/>
<stop offset="0.971466" stop-opacity="0"/>
</linearGradient>
<linearGradient id="paint2_linear_1_329" x1="171.123" y1="58.7868" x2="183.836" y2="181.295" gradientUnits="userSpaceOnUse">
<stop stop-color="#264F95"/>
<stop offset="1" stop-color="#0B0E18" stop-opacity="0"/>
</linearGradient>
</defs>
</svg>
